<?xml version="1.0" encoding="utf-8"?>
<!-- Generator: Adobe Illustrator 25.1.0, SVG Export Plug-In . SVG Version: 6.00 Build 0)  -->
<svg version="1.1" id="Capa_1" xmlns="http://www.w3.org/2000/svg" xmlns:xlink="http://www.w3.org/1999/xlink" x="0px" y="0px"
	 viewBox="0 0 30 28.6" style="enable-background:new 0 0 30 28.6;" xml:space="preserve">
<g>
	<path d="M6.3,10.8c-1.8,0-3.2,1.4-3.2,3.2c0,1.8,1.4,3.2,3.2,3.2s3.2-1.4,3.2-3.2C9.5,12.3,8.1,10.8,6.3,10.8z M6.3,15.6
		c-0.9,0-1.6-0.7-1.6-1.6c0-0.9,0.7-1.6,1.6-1.6s1.6,0.7,1.6,1.6C7.9,14.9,7.2,15.6,6.3,15.6z"/>
	<path d="M12.1,18.6c-1.8,0-3.2,1.4-3.2,3.2c0,1.8,1.4,3.2,3.2,3.2c1.8,0,3.2-1.4,3.2-3.2C15.3,20,13.9,18.6,12.1,18.6z M13.2,22.8
		c-0.3,0.3-0.7,0.5-1.1,0.5c-0.9,0-1.6-0.7-1.6-1.6c0-0.9,0.7-1.6,1.6-1.6c0.9,0,1.6,0.7,1.6,1.6C13.7,22.2,13.5,22.5,13.2,22.8z"/>
	<path d="M29.2,18.5L29.2,18.5L29.2,18.5l-3.2-3l0.1-0.1c1.7-1.3,2.4-3.6,1.8-5.6c-1.6-4.7-5.4-8.2-10.2-9.4C16.5,0.1,15.4,0,14.3,0
		C10.6,0,7,1.4,4.3,4.1C-1.3,9.6-1.4,18.7,4,24.3c4.8,4.9,12.4,5.8,18.1,2c1.2-0.8,1.7-2.1,1.3-3.5c-0.4-1.3-1.6-2.2-3-2.2
		c-1.3,0-2-0.9-2.1-1.8c-0.1-0.9,0.3-1.9,1.5-2.2l0.1,0l0,0l5.4,5.7c0,0,0,0,0,0c0.5,0.5,1.2,0.8,1.9,0.8c0,0,0,0,0,0
		c0.7,0,1.4-0.3,1.9-0.8c0.5-0.5,0.8-1.2,0.8-1.9C30,19.7,29.7,19,29.2,18.5z M18.6,15.3c-1,0.6-1.7,1.6-1.9,2.7
		c-0.2,1.2,0.3,2.3,1.1,3.1c0.7,0.7,1.6,1,2.6,1c0.7,0,1.2,0.4,1.4,1.1c0.2,0.7-0.1,1.3-0.6,1.7c-2.1,1.4-4.5,2.1-7,2.1
		c-3.3,0-6.7-1.3-9.1-3.9c-2.3-2.4-3.6-5.6-3.6-9c0-3.4,1.4-6.6,3.8-8.9C8.6,2.2,13,0.9,17.3,2c4.3,1,7.7,4.2,9.1,8.4
		c0.5,1.5-0.1,3.2-1.5,4l-0.1,0l-5-4.7l0,0c0.3-1.4-0.1-2.9-1.2-3.9c-1.5-1.5-6.8-2.1-7.4-2.2c-0.2,0-0.5,0.1-0.7,0.2
		c-0.2,0.2-0.3,0.4-0.2,0.7c0.3,2.7,1.1,6.3,2.2,7.4c1,1,2.5,1.5,3.9,1.2l0,0l2.2,2.3L18.6,15.3z M17.5,10.6
		c-0.5,0.5-1.2,0.8-1.9,0.8c0,0,0,0,0,0c-0.7,0-1.4-0.3-1.9-0.8c-0.7-0.7-1.3-3.3-1.6-5.4l0-0.1l0.1,0c2,0.3,4.7,0.9,5.4,1.6
		C18.6,7.8,18.6,9.6,17.5,10.6z M28.1,21.2c-0.2,0.2-0.5,0.3-0.8,0.3c-0.3,0-0.6-0.1-0.8-0.3l-8.4-8.9l0.1-0.1
		c0.3-0.3,0.6-0.6,0.9-0.9l0.1-0.1l0.1,0.1l8.9,8.4C28.5,20.1,28.5,20.8,28.1,21.2z"/>
</g>
</svg>
